<svg width="135" height="135" viewBox="0 0 135 135" xmlns="http://www.w3.org/2000/svg" fill="#f55f8d">
    <path d="M67.447 58c5.523 0 10-4.477 10-10s-4.477-10-10-10-10 4.477-10 10 4.477 10 10 10zm9.448 9.447c0 5.523 4.477 10 10 10 5.522 0 10-4.477 10-10s-4.478-10-10-10c-5.523 0-10 4.477-10 10zm-9.448 9.448c-5.523 0-10 4.477-10 10 0 5.522 4.477 10 10 10s10-4.478 10-10c0-5.523-4.477-10-10-10zM58 67.447c0-5.523-4.477-10-10-10s-10 4.477-10 10 4.477 10 10 10 10-4.477 10-10z">
        <animateTransform
            attributeName="transform"
            type="rotate"
            from="0 67 67"
            to="-360 67 67"
            dur="2.5s"
            repeatCount="indefinite"/>
    </path>
    <path d="M28.19 40.31c6.627 0 12-5.374 12-12 0-6.628-5.373-12-12-12-6.628 0-12 5.372-12 12 0 6.626 5.372 12 12 12zm30.72-19.825c4.686 4.687 12.284 4.687 16.97 0 4.686-4.686 4.686-12.284 0-16.97-4.686-4.687-12.284-4.687-16.97 0-4.687 4.686-4.687 12.284 0 16.97zm35.74 7.705c0 6.627 5.37 12 12 12 6.626 0 12-5.373 12-12 0-6.628-5.374-12-12-12-6.63 0-12 5.372-12 12zm19.822 30.72c-4.686 4.686-4.686 12.284 0 16.97 4.687 4.686 12.285 4.686 16.97 0 4.687-4.686 4.687-12.284 0-16.97-4.685-4.687-12.283-4.687-16.97 0zm-7.704 35.74c-6.627 0-12 5.37-12 12 0 6.626 5.373 12 12 12s12-5.374 12-12c0-6.63-5.373-12-12-12zm-30.72 19.822c-4.686-4.686-12.284-4.686-16.97 0-4.686 4.687-4.686 12.285 0 16.97 4.686 4.687 12.284 4.687 16.97 0 4.687-4.685 4.687-12.283 0-16.97zm-35.74-7.704c0-6.627-5.372-12-12-12-6.626 0-12 5.373-12 12s5.374 12 12 12c6.628 0 12-5.373 12-12zm-19.823-30.72c4.687-4.686 4.687-12.284 0-16.97-4.686-4.686-12.284-4.686-16.97 0-4.687 4.686-4.687 12.284 0 16.97 4.686 4.687 12.284 4.687 16.97 0z">
        <animateTransform
            attributeName="transform"
            type="rotate"
            from="0 67 67"
            to="360 67 67"
            dur="8s"
            repeatCount="indefinite"/>
    </path>
</svg>
<svg xmlns="http://www.w3.org/2000/svg" version="1.1" xmlns:xlink="http://www.w3.org/1999/xlink" id="flaticon-smile" x="0" y="0" viewBox="0 0 512 512" style="enable-background:new 0 0 512 512" xml:space="preserve" class=""><g><path d="M437.019 74.981C388.667 26.629 324.379 0 255.999 0S123.333 26.629 74.981 74.981.001 187.62.001 256s26.628 132.667 74.98 181.019S187.62 512 255.999 512s132.667-26.629 181.02-74.981c48.352-48.352 74.98-112.639 74.98-181.019s-26.628-132.667-74.98-181.019zM255.999 482C131.383 482 30.001 380.617 30.001 256S131.383 30 255.999 30c124.617 0 226 101.383 226 226s-101.383 226-226 226z" fill="#000000" opacity="1" data-original="#000000" class=""></path><path d="M159.6 144.6c-34.848 0-63.199 28.352-63.199 63.201 0 8.284 6.716 15 15 15s15-6.716 15-15c0-18.307 14.893-33.201 33.199-33.201 18.306 0 33.199 14.894 33.199 33.201 0 8.284 6.716 15 15 15s15-6.716 15-15c0-34.849-28.351-63.201-63.199-63.201zM352.399 144.6c-34.848 0-63.199 28.352-63.199 63.201 0 8.284 6.716 15 15 15s15-6.716 15-15c0-18.307 14.893-33.201 33.199-33.201 18.306 0 33.199 14.894 33.199 33.201 0 8.284 6.716 15 15 15s15-6.716 15-15c0-34.849-28.351-63.201-63.199-63.201zM397.356 290.057c-7.809-2.76-16.38 1.333-19.141 9.144-18.266 51.678-67.38 86.399-122.216 86.399s-103.951-34.721-122.216-86.399c-2.76-7.811-11.332-11.904-19.141-9.144-7.811 2.76-11.905 11.33-9.144 19.141C127.992 372.84 188.474 415.6 255.999 415.6S384.005 372.84 406.5 309.198c2.761-7.811-1.332-16.381-9.144-19.141z" fill="#000000" opacity="1" data-original="#000000" class="flaticon-smile"></path></g></svg>
